<svg xmlns="http://www.w3.org/2000/svg" viewBox="0 0 36.07 36.07"><defs><style>.cls-1{fill:#a7a9ac;stroke:#231f20;stroke-miterlimit:10;stroke-width:0.75px;}</style></defs><g id="Layer_2" data-name="Layer 2"><g id="Layer_2-2" data-name="Layer 2"><path class="cls-1" d="M18,.38A17.66,17.66,0,1,0,35.69,18,17.66,17.66,0,0,0,18,.38Zm10.1,16.83H25.07V27.72a.75.75,0,0,1-.75.75H20.75a.63.63,0,0,1-.62-.62v-7a.48.48,0,0,0-.48-.48H16.26a.49.49,0,0,0-.48.48v6.87a.74.74,0,0,1-.74.74h-3.3a.75.75,0,0,1-.75-.75V17.21H7.93a.5.5,0,0,1-.35-.85l2.62-2.69h0V7.74a.22.22,0,0,1,.22-.22h3.43a.22.22,0,0,1,.22.22V9.86l3.61-3.6a.47.47,0,0,1,.7,0l10.1,10.1A.5.5,0,0,1,28.13,17.21Z"/></g></g></svg>