<svg xmlns="http://www.w3.org/2000/svg" viewBox="0 0 35.59 35.6"><defs><style>.cls-1{fill:#a7a9ac;stroke:#231f20;stroke-miterlimit:10;stroke-width:0.5px;}</style></defs><g id="Layer_2" data-name="Layer 2"><g id="Layer_2-2" data-name="Layer 2"><path class="cls-1" d="M16.09,18.09c0,2.17-1.38,3.94-3.34,3.94s-3.17-1.51-3.29-3.91,1.45-4.32,3.29-4.32S16.09,15.66,16.09,18.09Z"/><path class="cls-1" d="M17.79.25A17.55,17.55,0,1,0,35.34,17.8,17.54,17.54,0,0,0,17.79.25ZM12.71,24.19c-3.27,0-5.51-2.86-5.51-6.37s2.24-6.37,5.51-6.37,5.4,2.83,5.4,6.35S16,24.19,12.71,24.19ZM27.05,24l-3.62-5.64-1.27,1.38,0,3.75a.51.51,0,0,1-.51.51H20.1a.33.33,0,0,1-.33-.33V12.24a.38.38,0,0,1,.38-.38h1.56a.42.42,0,0,1,.42.42l0,4.27a.07.07,0,0,0,.13.05l4.46-4.74h2.33a.25.25,0,0,1,.19.42l-4,4.38,4.65,7.05a.16.16,0,0,1-.14.26Z"/></g></g></svg>