<svg xmlns="http://www.w3.org/2000/svg" viewBox="0 0 35.48 35.48"><defs><style>.cls-1{fill:#a7a9ac;stroke:#231f20;stroke-miterlimit:10;stroke-width:0.59px;}</style></defs><g id="Layer_2" data-name="Layer 2"><g id="Layer_2-2" data-name="Layer 2"><path class="cls-1" d="M17.74.29A17.45,17.45,0,1,0,35.19,17.74,17.46,17.46,0,0,0,17.74.29Zm-1.57,9.76a1.18,1.18,0,0,1,1.18-1.18h.78a1.19,1.19,0,0,1,1.19,1.18v7.22a1.19,1.19,0,0,1-1.19,1.19h-.78a1.18,1.18,0,0,1-1.18-1.19ZM13.85,27.21a8.15,8.15,0,0,1-4.32-4.3,9.16,9.16,0,0,1,2.82-11.18,1.14,1.14,0,0,1,1.48.13l.47.47a1.16,1.16,0,0,1,0,1.8A6,6,0,1,0,23.71,19a6,6,0,0,0-2.49-4.85,1.13,1.13,0,0,1-.12-1.72l.55-.56a1.16,1.16,0,0,1,1.49-.12,9.07,9.07,0,0,1-9.29,15.48Z"/></g></g></svg>