<svg xmlns="http://www.w3.org/2000/svg" viewBox="0 0 36.07 36.07"><defs><style>.cls-1,.cls-2,.cls-3,.cls-5{fill:#a7a9ac;}.cls-1,.cls-2,.cls-3,.cls-4,.cls-5{stroke:#231f20;stroke-miterlimit:10;}.cls-1{stroke-width:0.75px;}.cls-2{stroke-width:0.77px;}.cls-3{stroke-width:0.48px;}.cls-4{fill:none;}.cls-4,.cls-5{stroke-width:0.57px;}</style></defs><g id="Layer_2" data-name="Layer 2"><g id="Layer_2-2" data-name="Layer 2"><path class="cls-1" d="M18,.38A17.66,17.66,0,1,0,35.7,18,17.65,17.65,0,0,0,18,.38Zm8.39,27.33H9.29V16.36h3.37a1.55,1.55,0,0,1,0-.21V11.86a5.29,5.29,0,0,1,5.28-5.27,5.29,5.29,0,0,1,5.28,5.27v4.5h3.21Z"/><path class="cls-1" d="M20.17,12.22v4.14H15.9V12.22a2.14,2.14,0,0,1,4.27,0Z"/><path class="cls-2" d="M20.17,12.22v4.14H15.9V12.22a2.14,2.14,0,0,1,4.27,0Z"/><path class="cls-3" d="M19.68,20.78a1.66,1.66,0,0,1-.36,1,1.46,1.46,0,0,1-.36.34v2.19a.93.93,0,0,1-1.85,0V22.14a1.23,1.23,0,0,1-.31-.29h0a1.61,1.61,0,0,1-.4-1.07,1.65,1.65,0,1,1,3.29,0Z"/><path class="cls-4" d="M20.17,12.22v4.14H15.9V12.22a2.14,2.14,0,0,1,4.27,0Z"/><path class="cls-5" d="M20.17,12.22v4.14H15.9V12.22a2.14,2.14,0,0,1,4.27,0Z"/></g></g></svg>