<svg xmlns="http://www.w3.org/2000/svg" viewBox="0 0 35.84 35.85"><defs><style>.cls-1{fill:#a7a9ac;stroke:#231f20;stroke-miterlimit:10;stroke-width:0.75px;}</style></defs><g id="Layer_2" data-name="Layer 2"><g id="Layer_2-2" data-name="Layer 2"><path class="cls-1" d="M16.22,18.21c0,2.18-1.39,3.94-3.34,3.94s-3.17-1.51-3.29-3.9,1.44-4.32,3.29-4.32S16.21,15.79,16.22,18.21Z"/><path class="cls-1" d="M17.92.38A17.55,17.55,0,1,0,35.47,17.92,17.54,17.54,0,0,0,17.92.38ZM12.84,24.32c-3.27,0-5.52-2.86-5.52-6.37s2.25-6.37,5.52-6.37,5.39,2.82,5.39,6.34S16.11,24.32,12.84,24.32Zm14.34-.23-3.63-5.64-1.26,1.38,0,3.76a.5.5,0,0,1-.51.5H20.23a.32.32,0,0,1-.33-.33V12.36a.37.37,0,0,1,.37-.38h1.57a.43.43,0,0,1,.42.42l0,4.27a.07.07,0,0,0,.12,0L26.88,12h2.33a.26.26,0,0,1,.18.43l-4,4.38,4.65,7a.17.17,0,0,1-.14.26Z"/></g></g></svg>