<svg xmlns="http://www.w3.org/2000/svg" viewBox="0 0 230.85 423.95"><defs><style>.cls-1{fill:#e6e7e8;}.cls-1,.cls-2{stroke:#231f20;stroke-miterlimit:10;}.cls-2{fill:none;}</style></defs><g id="Layer_2" data-name="Layer 2"><g id="Layer_2-2" data-name="Layer 2"><path class="cls-1" d="M197.67.5H33.18A32.68,32.68,0,0,0,.5,33.18V390.77a32.68,32.68,0,0,0,32.68,32.68H197.67a32.68,32.68,0,0,0,32.68-32.68V33.18A32.68,32.68,0,0,0,197.67.5Zm20.74,181.39a21.72,21.72,0,0,1-21.71,21.72H34.15a21.72,21.72,0,0,1-21.71-21.72V34.55A21.71,21.71,0,0,1,34.15,12.84H196.7a21.71,21.71,0,0,1,21.71,21.71Z"/><path class="cls-2" d="M218.41,34.55V181.89a21.72,21.72,0,0,1-21.71,21.72H34.15a21.72,21.72,0,0,1-21.71-21.72V34.55A21.71,21.71,0,0,1,34.15,12.84H196.7A21.71,21.71,0,0,1,218.41,34.55Z"/></g></g></svg>