<svg xmlns="http://www.w3.org/2000/svg" viewBox="0 0 230.85 468.31"><defs><style>.cls-1{fill:#e6e7e8;}.cls-1,.cls-2,.cls-3,.cls-4,.cls-5{stroke:#231f20;stroke-miterlimit:10;}.cls-2{fill:none;}.cls-3,.cls-4{fill:#6d6e71;}.cls-4{stroke-width:0.89px;}.cls-5{fill:#fbb040;stroke-width:1px;}</style></defs><g id="Layer_2" data-name="Layer 2"><g id="Layer_2-2" data-name="Layer 2"><path class="cls-1" d="M197.67.5H33.18A32.68,32.68,0,0,0,.5,33.18V390.77a32.68,32.68,0,0,0,32.68,32.68H197.67a32.68,32.68,0,0,0,32.68-32.68V33.18A32.68,32.68,0,0,0,197.67.5Zm20.74,181.39a21.72,21.72,0,0,1-21.71,21.72H34.15a21.72,21.72,0,0,1-21.71-21.72V34.55A21.71,21.71,0,0,1,34.15,12.84H196.7a21.71,21.71,0,0,1,21.71,21.71Z"/><path class="cls-2" d="M218.41,34.55V181.89a21.72,21.72,0,0,1-21.71,21.72H34.15a21.72,21.72,0,0,1-21.71-21.72V34.55A21.71,21.71,0,0,1,34.15,12.84H196.7A21.71,21.71,0,0,1,218.41,34.55Z"/><path class="cls-3" d="M73.26,423.45a9,9,0,0,1-2.54,6.29.81.81,0,0,1-.12.14,9.07,9.07,0,0,1-6.44,2.67H42.35a9.11,9.11,0,0,1-9.1-9.1Z"/><path class="cls-4" d="M195.27,423.45a9.12,9.12,0,0,1-9.1,9.1H164.36a9.11,9.11,0,0,1-9.1-9.1Z"/><path class="cls-5" d="M179.75,432.55v27.93a7.33,7.33,0,0,1-7.33,7.33H56.05a7.31,7.31,0,0,1-7.31-7.31V432.55h9.15a3.67,3.67,0,0,0-.15,1.06v21a3.86,3.86,0,0,0,3.86,3.86H166.92a3.86,3.86,0,0,0,3.86-3.86v-21a3.67,3.67,0,0,0-.15-1.06Z"/></g></g></svg>