<svg xmlns="http://www.w3.org/2000/svg" viewBox="0 0 36.07 36.06"><defs><style>.cls-1{fill:#a7a9ac;}.cls-1,.cls-2{stroke:#231f20;stroke-miterlimit:10;stroke-width:0.75px;}.cls-2{fill:none;}</style></defs><g id="Layer_2" data-name="Layer 2"><g id="Layer_2-2" data-name="Layer 2"><path class="cls-1" d="M18,.38A17.65,17.65,0,1,0,35.7,18,17.66,17.66,0,0,0,18,.38ZM28.27,18.62a1.75,1.75,0,0,1-1.74,1.74H20.36v6.16a1.74,1.74,0,0,1-1.74,1.75H17.46a1.73,1.73,0,0,1-1.74-1.75V20.36H9.55A1.75,1.75,0,0,1,7.8,18.62V17.45a1.75,1.75,0,0,1,1.75-1.74h6.17V9.55A1.73,1.73,0,0,1,17.46,7.8h1.16a1.74,1.74,0,0,1,1.74,1.75v6.16h6.17a1.75,1.75,0,0,1,1.74,1.74Z"/><path class="cls-2" d="M28.27,17.45v1.17a1.75,1.75,0,0,1-1.74,1.74H20.36v6.16a1.74,1.74,0,0,1-1.74,1.75H17.46a1.73,1.73,0,0,1-1.74-1.75V20.36H9.55A1.75,1.75,0,0,1,7.8,18.62V17.45a1.75,1.75,0,0,1,1.75-1.74h6.17V9.55A1.73,1.73,0,0,1,17.46,7.8h1.16a1.74,1.74,0,0,1,1.74,1.75v6.16h6.17A1.75,1.75,0,0,1,28.27,17.45Z"/></g></g></svg>